<svg version="1.1" xmlns="http://www.w3.org/2000/svg" xmlns:xlink="http://www.w3.org/1999/xlink" x="0px" y="0px"
	 width="22px" height="24px" viewBox="0 0 22 24" enable-background="new 0 0 22 24" xml:space="preserve">
<g id="log_x5F_book">
	<g id="book_1_">
		<path fill="#989898" d="M4.4,14l1.5-1.5c0.1-0.1,0.2-0.1,0.3,0l1.9,1.9c0.1,0.1,0.2,0.1,0.3,0l5-5c0.1-0.1,0.2-0.1,0.3,0l1.6,1.5
			c0.1,0.1,0.1,0.2,0,0.3l-6.9,6.9c-0.1,0.1-0.2,0.1-0.3,0l-3.7-3.7C4.3,14.3,4.3,14.1,4.4,14z M18,0H3.5L0,3.8V24h15
			c1.7,0,3-1.3,3-3V7c0-1.7-1.3-3-3-3H2.7l2-2C4.7,2,16,2,17,2c2,0,3,1,3,3c0,1,0,16,0,16l2-2V4C22,2,20,0,18,0z"/>
	</g>
</g>
</svg>
