<?xml version="1.0" encoding="utf-8"?>
<!-- Generator: Adobe Illustrator 21.0.0, SVG Export Plug-In . SVG Version: 6.00 Build 0)  -->
<svg version="1.1" id="Layer_1" xmlns="http://www.w3.org/2000/svg" xmlns:xlink="http://www.w3.org/1999/xlink" x="0px" y="0px"
	 viewBox="0 0 40 40" style="enable-background:new 0 0 40 40;" xml:space="preserve">
<style type="text/css">
	.st0{fill:none;stroke:#000000;stroke-miterlimit:10;}
</style>
<path class="st0" d="M34.1,18.4c2.3-2.3,3.1-5.6,2.3-8.5l-5.3,5.3l-4.8-1.5l-1.5-4.9l5.3-5.3c-3-0.8-6.2,0-8.5,2.3
	c-2.6,2.6-3.3,6.5-1.9,9.7l-15,13.9c-1.7,1.6-1.8,4.3-0.1,6c1.7,1.7,4.4,1.6,6-0.1l13.9-15C27.6,21.7,31.5,21.1,34.1,18.4z
	 M6.2,33.8c-0.7-0.7-0.7-1.7,0-2.4c0.7-0.7,1.7-0.7,2.4,0c0.7,0.7,0.7,1.7,0,2.4C7.9,34.5,6.8,34.5,6.2,33.8z"/>
</svg>
