<?xml version="1.0" encoding="utf-8"?>
<!-- Generator: Adobe Illustrator 21.0.0, SVG Export Plug-In . SVG Version: 6.00 Build 0)  -->
<svg version="1.1" id="Layer_1" xmlns="http://www.w3.org/2000/svg" xmlns:xlink="http://www.w3.org/1999/xlink" x="0px" y="0px"
	 viewBox="0 0 40 40" style="enable-background:new 0 0 40 40;" xml:space="preserve">
<style type="text/css">
.st0{fill:none;stroke:#000000;stroke-miterlimit:10;}
</style>
<g>
	<g>
		<g>
			<path class="st0" d="M20,33.9c0-1.3-1-2.3-2.3-2.3H3.5h0c-1.3,0-2.3-1-2.3-2.3V8.4c0-1.3,1-2.3,2.3-2.3h0h14.2
				c1.3,0,2.3,1,2.3,2.3"/>
			<path class="st0" d="M20,33.9c0-1.3,1-2.3,2.3-2.3h14.2c1.3,0,2.3-1,2.3-2.3V8.4c0-1.3-1-2.3-2.3-2.3H22.3h0
				c-1.3,0-2.3,1-2.3,2.3v24.5"/>
		</g>
	</g>
	<path class="st0" d="M35.5,18.8H23.3"/>
	<path class="st0" d="M35.5,12.5H23.3"/>
	<path class="st0" d="M35.5,25.2H23.3"/>
	<path class="st0" d="M16.7,18.8H4.5"/>
	<path class="st0" d="M16.7,12.5H4.5"/>
	<path class="st0" d="M16.7,25.2H4.5"/>
</g>
</svg>
