<svg version="1.1" xmlns="http://www.w3.org/2000/svg" xmlns:xlink="http://www.w3.org/1999/xlink" x="0px" y="0px"
	 width="24.3px" height="17.7px" viewBox="0 0 24.3 17.7" enable-background="new 0 0 24.3 17.7" xml:space="preserve">
<g id="conversation_1_">
	<path fill="#989898" d="M22.9,13.1c0.1,0.2-0.1,0.4-0.3,0.2l-3.4-1.8C18.1,11.8,17,12,15.7,12c-4.8,0-8.6-2.7-8.6-6s3.9-6,8.6-6
		c4.8,0,8.6,2.7,8.6,6c0,1.6-0.9,3-2.2,4L22.9,13.1z M15.4,13.9c-5.7,0-10.2-3.3-10.2-7.5c0-0.6,0.1-1.3,0.3-1.9
		C2.3,5.4,0,7.6,0,10.2c0,1.6,0.9,3,2.3,4.1l-0.8,3.1c-0.1,0.3,0.1,0.4,0.3,0.2l3.5-1.8c1.1,0.3,2.3,0.5,3.5,0.5
		c2.8,0,5.3-0.9,6.9-2.4C15.6,13.9,15.5,13.9,15.4,13.9z"/>
</g>
</svg>
