<svg version="1.1" xmlns="http://www.w3.org/2000/svg" xmlns:xlink="http://www.w3.org/1999/xlink" x="0px" y="0px"
	 viewBox="0 0 34.9 21.9" enable-background="new 0 0 34.9 21.9" xml:space="preserve" width="24px" height="24px">
<g id="group">
	<path fill="#999999" d="M28.9,19.1c0,1.1,0,2.5,0,2.5c0,0.1-0.1,0.3-0.3,0.3H6.1c-0.1,0-0.3-0.2-0.3-0.3c0,0,0-1.4,0-2.5
		s0.2-1.5,1-1.9c0.6-0.4,5-2.9,7-3.7V9.7c-0.6-0.5-1-1.2-1-2.2c0-2.5,0-3,0-3C12.8,2,14.3,0,17.3,0s4.5,2,4.5,4.5v3
		c0,1.1-0.4,1.8-1,2.2v3.8c2.2,0.9,6.4,3.4,7,3.7C28.7,17.7,28.9,18.1,28.9,19.1z M6.2,15.9l0.1-0.1c2.3-1.3,4.1-2.3,5.5-3
		c-0.6-0.3-1.3-0.6-1.8-0.8V9.4c1-0.3,1-0.8,1-1.5V6.1C11,4.4,10.1,3,8,3S5,4.4,5,6.1c0,0,0,0,0,1.8c0,0.7,0,1.2,1,1.6v2.6
		c-2,0.6-4.6,2.3-5.1,2.6C0.3,15,0,15.3,0,16c0,0.7,0,1.7,0,1.7c0,0.1,0.1,0.2,0.2,0.2h4.4C4.7,17.2,5.1,16.5,6.2,15.9z M34,14.7
		c-0.4-0.3-3.1-2-5.1-2.6V9.5c1-0.3,1-0.8,1-1.5V6.2c0-1.7-0.9-3.1-3-3.1s-3,1.4-3,3.1c0,0,0,0,0,1.8c0,0.7,0,1.2,1,1.6v2.6
		c-0.6,0.2-1.2,0.4-1.8,0.7c1.9,1,4.2,2.3,5.2,2.9l0.4,0.2c1,0.6,1.5,1.3,1.6,2.1h4.4c0.1,0,0.2-0.1,0.2-0.2c0,0,0-1,0-1.7
		C34.9,15.3,34.5,15,34,14.7z"/>
</g>
</svg>
